# xmcd
#
# Track frame offsets:
# 150
# 15585
# 33775
# 47577
# 61092
# 75252
# 88142
# 103072
# 116462
# 130257
# 143880
# 157080
# 171987
# 185650
# 199217
# 214235
# 228992
# 243502
# 256327
# 271250
#
# Disc length: 3820 seconds
#
# Revision: 0
# Processed by: cddbd v1.4PL0 Copyright (c) Steve Scherf et al.
# Submitted via: Audion 3.0.2 (http://www.panic.com/audion/)
#
DISCID=130eea14
DTITLE=Libby Holman - Moanin' Low
DYEAR=1900
DGENRE=
TTITLE0=Moanin' Low
TTITLE1=Can't We Be Friends
TTITLE2=Who's That Knocking At My Door
TTITLE3=There Ain't No Sweet Man That's Worth The Salt Of My Tears
TTITLE4=He's A Good Man To Have Around
TTITLE5=The Way He Loves Is Just Too Bad
TTITLE6=I'm Doin' What I'm Doin' For Love
TTITLE7=I May Be Wrong-But I Think Your Wonderful
TTITLE8=My Man Is On The Make
TTITLE9=Here Am I
TTITLE10=Find Me a Primitive Man
TTITLE11=A Ship Without A Sail
TTITLE12=What Is This Thing Called Love
TTITLE13=Cooking Breakfast For The One I Love
TTITLE14=Body And Soul
TTITLE15=Something To Remember You By
TTITLE16=I'm One Of God's Children-Who Hasn't Got Wings
TTITLE17=You And The Night And The Music
TTITLE18=When You Love Only One
TTITLE19=Moanin' Low
EXTD=
EXTT0=
EXTT1=
EXTT2=
EXTT3=
EXTT4=
EXTT5=
EXTT6=
EXTT7=
EXTT8=
EXTT9=
EXTT10=
EXTT11=
EXTT12=
EXTT13=
EXTT14=
EXTT15=
EXTT16=
EXTT17=
EXTT18=
EXTT19=
PLAYORDER=
